<svg width="225" height="225" xmlns:xlink="http://www.w3.org/1999/xlink" xmlns="http://www.w3.org/2000/svg"><defs><linearGradient id="b"><stop style="stop-color:#f9f9f9;stop-opacity:1" offset="0"/><stop style="stop-color:#f9f9f9;stop-opacity:0" offset="1"/></linearGradient><linearGradient id="a"><stop style="stop-color:#000;stop-opacity:1" offset="0"/><stop style="stop-color:#502d16;stop-opacity:0" offset="1"/></linearGradient><linearGradient xlink:href="#a" id="c" x1="2.447" y1="112.67" x2="111.336" y2="115.295" gradientUnits="userSpaceOnUse"/><linearGradient xlink:href="#b" id="d" x1="70.209" y1="128.41" x2="111.532" y2="128.41" gradientUnits="userSpaceOnUse" gradientTransform="rotate(180 112.498 128.41)"/></defs><path style="fill:#ce9d74;fill-opacity:1" d="M55.747 168.247 0 112.493l56.254-56.247L112.507 0l49.51 49.75c27.23 27.362 52.42 52.793 55.98 56.513l6.47 6.763-55.48 55.487C138.473 199.03 113.054 224 112.5 224c-.554 0-26.093-25.089-56.753-55.753z"/><path style="fill:url(#c);fill-opacity:1;opacity:.1" d="M55.747 168.247 0 112.493l56.254-56.247L112.507 0l49.51 49.75c27.23 27.362 52.42 52.793 55.98 56.513l6.47 6.763-55.48 55.487C138.473 199.03 113.054 224 112.5 224c-.554 0-26.093-25.089-56.753-55.753z"/><path style="fill:#000" d="M55.747 168.247 0 112.493l56.254-56.247L112.507 0l49.51 49.75c27.23 27.362 52.42 52.793 55.98 56.513l6.47 6.763-55.48 55.487C138.473 199.03 113.054 224 112.5 224c-.554 0-26.093-25.089-56.753-55.753zm112.756-26.244-7.972-8.019-24.023 24.008L112.485 182 88.5 158l-23.985-24-8 8-8.002 8.002 31.99 32 31.99 32.002 31.99-31.991 31.992-31.991zm-34.744-34.744-21.242-21.26-21.258 21.242-21.26 21.242 21.242 21.258 21.242 21.26 21.258-21.242 21.26-21.242zM78 109.499 112.49 75l34.751 34.742 34.753 34.742L198 128.499l16.007-15.984-50.75-50.757L112.508 11l-50.75 50.742-50.75 50.743 15.734 15.757C35.396 136.91 42.71 144 42.994 144c.284 0 16.037-15.525 35.006-34.5z"/><path style="opacity:1;fill:#62ffff;fill-opacity:1;stroke-width:1.55179" d="m91.25 149.552-21.041-21.044 21.145-21.142 21.144-21.142 21.145 21.142 21.145 21.142-21.04 21.044c-11.573 11.574-21.135 21.043-21.25 21.043-.114 0-9.676-9.47-21.249-21.043z"/><path style="opacity:.2;fill:url(#d);fill-opacity:1;stroke-width:1.55179" d="m133.747 107.268 21.041 21.044-21.145 21.141-21.145 21.142-21.144-21.142-21.145-21.141 21.04-21.044c11.573-11.574 21.135-21.044 21.25-21.044.114 0 9.676 9.47 21.248 21.044z"/></svg>